Coordinates
version=1
nRows=8
nColumns=36
inDegrees=yes

Units are S.I. units (second, meters, Newtons, ...)
If the header above contains a line with 'inDegrees', this indicates whether rotational values are in degrees (yes) or radians (no).

endheader
time	pelvis_tilt	pelvis_list	pelvis_rotation	pelvis_tx	pelvis_ty	pelvis_tz	hip_flexion_r	hip_adduction_r	hip_rotation_r	knee_angle_r	knee_angle_r_beta	ankle_angle_r	subtalar_angle_r	mtp_angle_r	hip_flexion_l	hip_adduction_l	hip_rotation_l	knee_angle_l	knee_angle_l_beta	ankle_angle_l	subtalar_angle_l	mtp_angle_l	lumbar_extension	lumbar_bending	lumbar_rotation	arm_flex_r	arm_add_r	arm_rot_r	elbow_flex_r	pro_sup_r	arm_flex_l	arm_add_l	arm_rot_l	elbow_flex_l	pro_sup_l
      0.00000000	     -0.54836193	     -0.89932393	     17.92932479	     -0.39380961	      1.17502670	      0.05353345	      0.27199228	     -1.85000782	     -2.46560532	      0.48534536	      0.00847087	      7.39306712	     -7.16938254	     -5.17825793	      0.14518937	      3.19317006	      0.90087888	      0.74061190	      0.01292612	      2.72039300	     -7.96505380	     -5.17825793	     -0.21211720	     -0.83314843	     -0.99240339	     -7.16915817	     -7.03261624	      5.14570940	     33.58821896	     81.40605154	     -0.86450752	     -9.40937463	     25.91765090	     26.00714151	     68.13356935
      0.01666670	     -1.58897157	     -1.01106097	     17.25162984	     -0.39316466	      1.17377208	      0.05434159	      1.39475963	     -1.92511891	     -1.63176985	      0.46422037	      0.00810217	      7.56091190	     -5.76889741	     -6.31685687	      0.98555883	      3.58956231	      1.06155572	      0.97581937	      0.01703126	      3.53169181	     -7.31871985	     -6.31685687	      1.83017296	     -0.87623218	     -0.25238346	     -8.61417391	     -7.00621090	      2.38154342	     35.75068944	     83.44873511	     -0.70224160	     -8.94311356	     24.69360641	     24.81168308	     72.67950497
      0.03333330	     -2.43241169	     -0.37680632	     16.87726539	     -0.39329326	      1.16749829	      0.05564093	      2.00782607	     -2.91538404	     -2.05843246	      0.34087105	      0.00594932	      7.92502288	     -4.76559198	     -6.52119463	      1.64477504	      4.57887088	     -0.51499923	      0.85969163	      0.01500445	      4.41643590	     -5.74247420	     -6.52119463	      2.71623707	     -2.00919509	      0.05989869	     -9.16323267	     -6.38216286	      0.95108715	     36.99523528	     81.24672410	     -0.78250572	     -9.19382959	     23.92499307	     25.77862490	     71.53973047
      0.05000000	     -2.58210228	      0.01804833	     16.45055609	     -0.39289947	      1.16805610	      0.05582521	      2.30011984	     -3.45480496	     -2.20512409	      0.31418091	      0.00548349	      8.40610270	     -4.14055152	     -6.71913194	      1.44312865	      4.98837577	     -0.92271846	      0.65019817	      0.01134810	      4.91997681	     -4.39738470	     -6.71913194	      2.86942962	     -2.44548934	      0.41502802	     -9.51555848	     -5.93157173	     -0.76228768	     37.64369758	     80.35748917	     -0.96534686	     -9.09505023	     22.75738114	     25.88763792	     71.19693143
      0.06666670	     -2.63715284	      0.17888729	     15.96335425	     -0.39330225	      1.16383009	      0.05679534	      2.43586907	     -3.64079872	     -1.78619295	      0.27030613	      0.00471773	      8.75391010	     -3.96614487	     -6.81769699	      1.33356283	      5.18857085	     -1.32710229	      0.56555014	      0.00987071	      5.26470181	     -4.16339130	     -6.81769699	      2.90438355	     -2.47445401	      0.91094913	     -9.81233108	     -5.70426223	     -2.13338650	     38.78684928	     79.71306894	     -1.62046652	     -9.01031129	     21.54551126	     26.21143032	     70.79054278
      0.08333330	     -2.93749294	      0.13747612	     15.77716243	     -0.39320396	      1.16411793	      0.05685087	      2.73589565	     -3.63347371	     -1.74279673	      0.25142755	      0.00438824	      8.92605585	     -3.42902299	     -6.90282626	      1.67654702	      5.27724681	     -1.89540995	      0.50164992	      0.00875544	      5.60833507	     -3.75535623	     -6.90282626	      3.31571310	     -2.50141588	      1.54469802	    -10.42268923	     -5.38945959	     -3.76157655	     39.20695801	     79.96113758	     -1.69622486	     -8.73521816	     19.77847230	     26.06360858	     70.90926826
      0.10000000	     -3.37977207	      0.15577425	     15.54946220	     -0.39278682	      1.16534544	      0.05691848	      3.25984349	     -3.75690448	     -1.56441381	      0.23307787	      0.00406798	      8.71492942	     -3.14406841	     -7.21092461	      2.13840328	      5.45080800	     -2.27565894	      0.47384520	      0.00827016	      5.24253862	     -4.02978716	     -7.21092461	      3.83585148	     -2.56432518	      2.02958866	    -11.05067969	     -4.71554241	     -7.50884228	     39.68050368	     91.11772079	     -2.17121115	     -8.18198176	     14.51932184	     26.55138102	     80.02099947
      0.11666670	     -3.55079800	      0.18250272	     15.47563221	     -0.39265842	      1.16502087	      0.05691737	      3.38225498	     -3.79689523	     -1.24987694	      0.21796068	      0.00380413	      8.62622156	     -2.96694679	     -7.23672269	      2.35831765	      5.54144567	     -2.40485282	      0.45849776	      0.00800230	      5.29812716	     -3.60194831	     -7.23672269	      3.96675293	     -2.66174695	      2.29367254	    -11.11925232	     -4.65509656	     -7.30972143	     39.89224263	     89.66969647	     -2.18904372	     -8.14689681	     14.14466717	     26.88372241	     79.03835904
